<svg width="64" height="110" viewBox="0 0 64 110" fill="none" xmlns="http://www.w3.org/2000/svg">
<path d="M50.75 6.875C52.4076 6.875 53.9973 7.59933 55.1694 8.88864C56.3415 10.178 57 11.9266 57 13.75V96.25C57 98.0734 56.3415 99.822 55.1694 101.111C53.9973 102.401 52.4076 103.125 50.75 103.125H13.25C11.5924 103.125 10.0027 102.401 8.83058 101.111C7.65848 99.822 7 98.0734 7 96.25V13.75C7 11.9266 7.65848 10.178 8.83058 8.88864C10.0027 7.59933 11.5924 6.875 13.25 6.875H50.75ZM13.25 0C9.93479 0 6.75537 1.44866 4.41116 4.02728C2.06696 6.60591 0.75 10.1033 0.75 13.75V96.25C0.75 99.8967 2.06696 103.394 4.41116 105.973C6.75537 108.551 9.93479 110 13.25 110H50.75C54.0652 110 57.2446 108.551 59.5888 105.973C61.933 103.394 63.25 99.8967 63.25 96.25V13.75C63.25 10.1033 61.933 6.60591 59.5888 4.02728C57.2446 1.44866 54.0652 0 50.75 0L13.25 0Z" fill="#A86B3C"/>
<path d="M32 96.25C33.6576 96.25 35.2473 95.5257 36.4194 94.2364C37.5915 92.947 38.25 91.1984 38.25 89.375C38.25 87.5516 37.5915 85.803 36.4194 84.5136C35.2473 83.2243 33.6576 82.5 32 82.5C30.3424 82.5 28.7527 83.2243 27.5806 84.5136C26.4085 85.803 25.75 87.5516 25.75 89.375C25.75 91.1984 26.4085 92.947 27.5806 94.2364C28.7527 95.5257 30.3424 96.25 32 96.25Z" fill="#A86B3C"/>
</svg>
