<svg width="88" height="88" viewBox="0 0 88 88" fill="none" xmlns="http://www.w3.org/2000/svg">
<path d="M43.9565 0.666626C20.0365 0.666626 0.666504 20.08 0.666504 44C0.666504 67.92 20.0365 87.3333 43.9565 87.3333C67.9198 87.3333 87.3332 67.92 87.3332 44C87.3332 20.08 67.9198 0.666626 43.9565 0.666626ZM43.9998 78.6666C24.8465 78.6666 9.33317 63.1533 9.33317 44C9.33317 24.8466 24.8465 9.33329 43.9998 9.33329C63.1532 9.33329 78.6665 24.8466 78.6665 44C78.6665 63.1533 63.1532 78.6666 43.9998 78.6666ZM46.1665 22.3333H39.6665V48.3333L62.4165 61.9833L65.6665 56.6533L46.1665 45.0833V22.3333Z" fill="#A86B3C"/>
</svg>
