<svg width="424" height="126" viewBox="0 0 424 126" fill="none" xmlns="http://www.w3.org/2000/svg">
<g filter="url(#filter0_dddd_132_6)">
<rect x="32" y="8" width="360" height="62" rx="31" fill="#FF385C"/>
</g>
<path d="M177.843 41.476C177.939 41.476 178.035 41.496 178.131 41.536C178.227 41.568 178.319 41.628 178.407 41.716L180.015 43.408C179.311 44.328 178.427 45.024 177.363 45.496C176.307 45.96 175.055 46.192 173.607 46.192C172.279 46.192 171.087 45.968 170.031 45.52C168.983 45.064 168.091 44.44 167.355 43.648C166.627 42.848 166.067 41.904 165.675 40.816C165.283 39.72 165.087 38.532 165.087 37.252C165.087 35.948 165.299 34.752 165.723 33.664C166.147 32.568 166.743 31.624 167.511 30.832C168.279 30.04 169.199 29.424 170.271 28.984C171.343 28.544 172.523 28.324 173.811 28.324C174.467 28.324 175.083 28.384 175.659 28.504C176.243 28.616 176.787 28.776 177.291 28.984C177.795 29.184 178.259 29.428 178.683 29.716C179.107 30.004 179.483 30.316 179.811 30.652L178.443 32.488C178.355 32.6 178.251 32.704 178.131 32.8C178.011 32.888 177.843 32.932 177.627 32.932C177.483 32.932 177.347 32.9 177.219 32.836C177.091 32.772 176.955 32.696 176.811 32.608C176.667 32.512 176.507 32.412 176.331 32.308C176.163 32.196 175.959 32.096 175.719 32.008C175.487 31.912 175.211 31.832 174.891 31.768C174.579 31.704 174.211 31.672 173.787 31.672C173.115 31.672 172.499 31.796 171.939 32.044C171.387 32.292 170.907 32.656 170.499 33.136C170.099 33.608 169.787 34.192 169.563 34.888C169.347 35.576 169.239 36.364 169.239 37.252C169.239 38.148 169.359 38.944 169.599 39.64C169.847 40.336 170.179 40.924 170.595 41.404C171.019 41.876 171.511 42.236 172.071 42.484C172.631 42.732 173.231 42.856 173.871 42.856C174.239 42.856 174.575 42.84 174.879 42.808C175.183 42.768 175.467 42.708 175.731 42.628C175.995 42.54 176.243 42.428 176.475 42.292C176.707 42.148 176.943 41.968 177.183 41.752C177.279 41.672 177.383 41.608 177.495 41.56C177.607 41.504 177.723 41.476 177.843 41.476ZM186.832 33.364C187.776 33.364 188.636 33.512 189.412 33.808C190.188 34.104 190.852 34.528 191.404 35.08C191.964 35.632 192.396 36.304 192.7 37.096C193.012 37.88 193.168 38.764 193.168 39.748C193.168 40.74 193.012 41.636 192.7 42.436C192.396 43.228 191.964 43.904 191.404 44.464C190.852 45.016 190.188 45.444 189.412 45.748C188.636 46.044 187.776 46.192 186.832 46.192C185.88 46.192 185.012 46.044 184.228 45.748C183.452 45.444 182.78 45.016 182.212 44.464C181.652 43.904 181.216 43.228 180.904 42.436C180.6 41.636 180.448 40.74 180.448 39.748C180.448 38.764 180.6 37.88 180.904 37.096C181.216 36.304 181.652 35.632 182.212 35.08C182.78 34.528 183.452 34.104 184.228 33.808C185.012 33.512 185.88 33.364 186.832 33.364ZM186.832 43.432C187.688 43.432 188.316 43.132 188.716 42.532C189.124 41.924 189.328 41.004 189.328 39.772C189.328 38.54 189.124 37.624 188.716 37.024C188.316 36.424 187.688 36.124 186.832 36.124C185.952 36.124 185.308 36.424 184.9 37.024C184.492 37.624 184.288 38.54 184.288 39.772C184.288 41.004 184.492 41.924 184.9 42.532C185.308 43.132 185.952 43.432 186.832 43.432ZM195.041 46V33.556H197.345C197.809 33.556 198.113 33.764 198.257 34.18L198.461 34.852C198.669 34.636 198.885 34.44 199.109 34.264C199.333 34.08 199.573 33.924 199.829 33.796C200.093 33.66 200.373 33.556 200.669 33.484C200.973 33.404 201.305 33.364 201.665 33.364C202.417 33.364 203.037 33.56 203.525 33.952C204.021 34.336 204.397 34.852 204.653 35.5C204.861 35.116 205.113 34.788 205.409 34.516C205.713 34.244 206.037 34.024 206.381 33.856C206.733 33.688 207.101 33.564 207.485 33.484C207.877 33.404 208.265 33.364 208.649 33.364C209.361 33.364 209.993 33.472 210.545 33.688C211.097 33.896 211.557 34.204 211.925 34.612C212.301 35.012 212.585 35.508 212.777 36.1C212.969 36.684 213.065 37.348 213.065 38.092V46H209.345V38.092C209.345 36.804 208.793 36.16 207.689 36.16C207.185 36.16 206.765 36.328 206.429 36.664C206.101 36.992 205.937 37.468 205.937 38.092V46H202.217V38.092C202.217 37.38 202.077 36.88 201.797 36.592C201.517 36.304 201.105 36.16 200.561 36.16C200.225 36.16 199.905 36.236 199.601 36.388C199.305 36.54 199.025 36.744 198.761 37V46H195.041ZM219.175 42.616C219.455 42.92 219.759 43.136 220.087 43.264C220.415 43.392 220.759 43.456 221.119 43.456C221.463 43.456 221.779 43.388 222.067 43.252C222.355 43.116 222.603 42.9 222.811 42.604C223.027 42.3 223.195 41.908 223.315 41.428C223.435 40.948 223.495 40.364 223.495 39.676C223.495 39.02 223.447 38.468 223.351 38.02C223.255 37.572 223.119 37.212 222.943 36.94C222.775 36.66 222.571 36.46 222.331 36.34C222.091 36.22 221.823 36.16 221.527 36.16C220.983 36.16 220.535 36.26 220.183 36.46C219.831 36.66 219.495 36.952 219.175 37.336V42.616ZM218.947 35.092C219.435 34.572 219.987 34.148 220.603 33.82C221.227 33.484 221.967 33.316 222.823 33.316C223.471 33.316 224.071 33.46 224.623 33.748C225.175 34.036 225.651 34.452 226.051 34.996C226.451 35.54 226.763 36.208 226.987 37C227.219 37.784 227.335 38.676 227.335 39.676C227.335 40.612 227.203 41.476 226.939 42.268C226.683 43.06 226.319 43.748 225.847 44.332C225.383 44.916 224.823 45.372 224.167 45.7C223.519 46.028 222.799 46.192 222.007 46.192C221.359 46.192 220.815 46.1 220.375 45.916C219.935 45.732 219.535 45.484 219.175 45.172V49.948H215.455V33.556H217.759C218.223 33.556 218.527 33.764 218.671 34.18L218.947 35.092ZM232.74 35.476C233.124 34.804 233.564 34.276 234.06 33.892C234.564 33.508 235.14 33.316 235.788 33.316C236.348 33.316 236.804 33.448 237.156 33.712L236.916 36.448C236.876 36.624 236.808 36.744 236.712 36.808C236.624 36.872 236.5 36.904 236.34 36.904C236.276 36.904 236.192 36.9 236.088 36.892C235.984 36.884 235.876 36.876 235.764 36.868C235.652 36.852 235.536 36.84 235.416 36.832C235.304 36.816 235.2 36.808 235.104 36.808C234.56 36.808 234.124 36.952 233.796 37.24C233.476 37.528 233.204 37.928 232.98 38.44V46H229.26V33.556H231.468C231.652 33.556 231.804 33.572 231.924 33.604C232.052 33.636 232.156 33.688 232.236 33.76C232.324 33.824 232.388 33.912 232.428 34.024C232.476 34.136 232.516 34.272 232.548 34.432L232.74 35.476ZM244.727 40.936C243.983 40.968 243.371 41.032 242.891 41.128C242.411 41.224 242.031 41.344 241.751 41.488C241.471 41.632 241.275 41.796 241.163 41.98C241.059 42.164 241.007 42.364 241.007 42.58C241.007 43.004 241.123 43.304 241.355 43.48C241.587 43.648 241.927 43.732 242.375 43.732C242.855 43.732 243.275 43.648 243.635 43.48C243.995 43.312 244.359 43.04 244.727 42.664V40.936ZM238.031 35.284C238.783 34.62 239.615 34.128 240.527 33.808C241.447 33.48 242.431 33.316 243.479 33.316C244.231 33.316 244.907 33.44 245.507 33.688C246.115 33.928 246.627 34.268 247.043 34.708C247.467 35.14 247.791 35.656 248.015 36.256C248.239 36.856 248.351 37.512 248.351 38.224V46H246.647C246.295 46 246.027 45.952 245.843 45.856C245.667 45.76 245.519 45.56 245.399 45.256L245.135 44.572C244.823 44.836 244.523 45.068 244.235 45.268C243.947 45.468 243.647 45.64 243.335 45.784C243.031 45.92 242.703 46.02 242.351 46.084C242.007 46.156 241.623 46.192 241.199 46.192C240.631 46.192 240.115 46.12 239.651 45.976C239.187 45.824 238.791 45.604 238.463 45.316C238.143 45.028 237.895 44.672 237.719 44.248C237.543 43.816 237.455 43.32 237.455 42.76C237.455 42.312 237.567 41.86 237.791 41.404C238.015 40.94 238.403 40.52 238.955 40.144C239.507 39.76 240.251 39.44 241.187 39.184C242.123 38.928 243.303 38.784 244.727 38.752V38.224C244.727 37.496 244.575 36.972 244.271 36.652C243.975 36.324 243.551 36.16 242.999 36.16C242.559 36.16 242.199 36.208 241.919 36.304C241.639 36.4 241.387 36.508 241.163 36.628C240.947 36.748 240.735 36.856 240.527 36.952C240.319 37.048 240.071 37.096 239.783 37.096C239.527 37.096 239.311 37.032 239.135 36.904C238.959 36.776 238.815 36.624 238.703 36.448L238.031 35.284ZM254.209 35.476C254.593 34.804 255.033 34.276 255.529 33.892C256.033 33.508 256.609 33.316 257.257 33.316C257.817 33.316 258.273 33.448 258.625 33.712L258.385 36.448C258.345 36.624 258.277 36.744 258.181 36.808C258.093 36.872 257.969 36.904 257.809 36.904C257.745 36.904 257.661 36.9 257.557 36.892C257.453 36.884 257.345 36.876 257.233 36.868C257.121 36.852 257.005 36.84 256.885 36.832C256.773 36.816 256.669 36.808 256.573 36.808C256.029 36.808 255.593 36.952 255.265 37.24C254.945 37.528 254.673 37.928 254.449 38.44V46H250.729V33.556H252.937C253.121 33.556 253.273 33.572 253.393 33.604C253.521 33.636 253.625 33.688 253.705 33.76C253.793 33.824 253.857 33.912 253.897 34.024C253.945 34.136 253.985 34.272 254.017 34.432L254.209 35.476Z" fill="white"/>
<defs>
<filter id="filter0_dddd_132_6" x="0" y="0" width="424" height="126" filterUnits="userSpaceOnUse" color-interpolation-filters="sRGB">
<feFlood flood-opacity="0" result="BackgroundImageFix"/>
<feColorMatrix in="SourceAlpha" type="matrix" values="0 0 0 0 0 0 0 0 0 0 0 0 0 0 0 0 0 0 127 0" result="hardAlpha"/>
<feOffset/>
<feGaussianBlur stdDeviation="0.5"/>
<feColorMatrix type="matrix" values="0 0 0 0 0 0 0 0 0 0 0 0 0 0 0 0 0 0 0.04 0"/>
<feBlend mode="normal" in2="BackgroundImageFix" result="effect1_dropShadow_132_6"/>
<feColorMatrix in="SourceAlpha" type="matrix" values="0 0 0 0 0 0 0 0 0 0 0 0 0 0 0 0 0 0 127 0" result="hardAlpha"/>
<feOffset dy="2"/>
<feGaussianBlur stdDeviation="3"/>
<feColorMatrix type="matrix" values="0 0 0 0 1 0 0 0 0 0.219608 0 0 0 0 0.360784 0 0 0 0.08 0"/>
<feBlend mode="normal" in2="effect1_dropShadow_132_6" result="effect2_dropShadow_132_6"/>
<feColorMatrix in="SourceAlpha" type="matrix" values="0 0 0 0 0 0 0 0 0 0 0 0 0 0 0 0 0 0 127 0" result="hardAlpha"/>
<feOffset dy="16"/>
<feGaussianBlur stdDeviation="12"/>
<feColorMatrix type="matrix" values="0 0 0 0 1 0 0 0 0 0.219608 0 0 0 0 0.360784 0 0 0 0.1 0"/>
<feBlend mode="normal" in2="effect2_dropShadow_132_6" result="effect3_dropShadow_132_6"/>
<feColorMatrix in="SourceAlpha" type="matrix" values="0 0 0 0 0 0 0 0 0 0 0 0 0 0 0 0 0 0 127 0" result="hardAlpha"/>
<feOffset dy="24"/>
<feGaussianBlur stdDeviation="16"/>
<feColorMatrix type="matrix" values="0 0 0 0 1 0 0 0 0 0.219608 0 0 0 0 0.360784 0 0 0 0.14 0"/>
<feBlend mode="normal" in2="effect3_dropShadow_132_6" result="effect4_dropShadow_132_6"/>
<feBlend mode="normal" in="SourceGraphic" in2="effect4_dropShadow_132_6" result="shape"/>
</filter>
</defs>
</svg>
