<svg width="265" height="70" viewBox="0 0 265 70" fill="none" xmlns="http://www.w3.org/2000/svg">
<rect x="88.333" width="88.3333" height="70" fill="#B2ADAD"/>
<rect width="88.3333" height="70" fill="#F0F0F0"/>
<rect x="176.667" width="88.3333" height="70" fill="#191F1E"/>
<path d="M226.773 37.268H222.333V42.044H219.309V37.268H214.893V34.604H219.309V29.852H222.333V34.604H226.773V37.268Z" fill="white"/>
<path d="M129.259 35.204H135.739V38.204H129.259V35.204Z" fill="black"/>
<path d="M48.405 39.984V42H40.935V39.984H43.455V33.369C43.455 33.201 43.458 33.033 43.464 32.865C43.47 32.691 43.479 32.517 43.491 32.343L41.997 33.585C41.865 33.687 41.733 33.75 41.601 33.774C41.475 33.792 41.355 33.792 41.241 33.774C41.127 33.75 41.025 33.711 40.935 33.657C40.845 33.597 40.779 33.537 40.737 33.477L39.855 32.307L43.941 28.878H46.245V39.984H48.405Z" fill="black"/>
</svg>
