<svg width="408" height="110" viewBox="0 0 408 110" fill="none" xmlns="http://www.w3.org/2000/svg">
<g filter="url(#filter0_ddd_132_5)">
<path d="M24 39C24 21.8792 37.8792 8 55 8H353C370.121 8 384 21.8792 384 39C384 56.1208 370.121 70 353 70H55C37.8792 70 24 56.1208 24 39Z" fill="#2AB562"/>
</g>
<path d="M195.438 30.0537C196.506 29.4562 197.867 29.3162 199.168 29.6462C199.802 29.8062 200.343 30.2175 200.668 30.7837L201.791 32.7412C202.191 33.4391 202.307 34.2644 202.114 35.0453C201.921 35.8262 201.434 36.5026 200.755 36.9337L199.767 37.5612C199.358 37.82 199.208 38.2162 199.302 38.53C199.637 39.6525 200.378 40.8975 201.193 41.75C201.436 42.005 201.881 42.065 202.316 41.8112L202.862 41.4925C203.221 41.2836 203.617 41.1481 204.028 41.094C204.44 41.0399 204.858 41.0683 205.258 41.1774C205.658 41.2866 206.033 41.4743 206.36 41.7297C206.687 41.9851 206.959 42.3031 207.162 42.665L208.168 44.4587C208.497 45.0462 208.551 45.7475 208.318 46.3787C207.855 47.6325 206.961 48.6425 205.862 49.15C204.746 49.6637 203.44 49.6425 202.257 48.8537C200.385 47.6062 198.128 45.5062 196.085 42.0037C194.015 38.4537 193.493 35.4325 193.552 33.18C193.59 31.7387 194.352 30.6612 195.438 30.0537Z" fill="white"/>
<path d="M206.929 29.5788C206.784 29.4982 206.613 29.4785 206.454 29.524C206.294 29.5695 206.159 29.6764 206.079 29.8213C205.998 29.9661 205.979 30.1371 206.024 30.2965C206.069 30.4559 206.176 30.5907 206.321 30.6713L206.801 30.9388C208.301 31.7718 209.576 32.9555 210.519 34.3887C211.461 35.8219 212.043 37.4619 212.214 39.1688L212.254 39.5625C212.258 39.6468 212.28 39.7292 212.318 39.8049C212.355 39.8805 212.408 39.9478 212.472 40.0027C212.536 40.0575 212.61 40.0988 212.691 40.124C212.772 40.1492 212.856 40.1579 212.94 40.1494C213.024 40.141 213.106 40.1156 213.18 40.0749C213.254 40.0341 213.318 39.9788 213.37 39.9122C213.422 39.8457 213.46 39.7694 213.482 39.6878C213.504 39.6062 213.508 39.5211 213.496 39.4375L213.458 39.045C213.267 37.137 212.617 35.3036 211.563 33.7014C210.51 32.0993 209.084 30.7761 207.408 29.845L206.929 29.5788Z" fill="white"/>
<path d="M205.464 32.9287C205.549 32.7867 205.688 32.6844 205.848 32.6443C206.009 32.6042 206.179 32.6296 206.321 32.715L206.476 32.8075C207.485 33.4125 208.351 34.2294 209.013 35.2017C209.675 36.174 210.118 37.2784 210.311 38.4387L210.366 38.7725C210.383 38.8545 210.382 38.939 210.365 39.0209C210.348 39.1029 210.315 39.1805 210.267 39.2493C210.22 39.3181 210.159 39.3766 210.088 39.4214C210.017 39.4662 209.938 39.4964 209.856 39.5101C209.773 39.5238 209.689 39.5208 209.607 39.5013C209.526 39.4818 209.45 39.4461 209.382 39.3965C209.315 39.3468 209.258 39.2841 209.216 39.2122C209.173 39.1402 209.145 39.0604 209.134 38.9775L209.078 38.6437C208.914 37.662 208.539 36.7275 207.979 35.9048C207.419 35.0821 206.687 34.3908 205.834 33.8787L205.679 33.7862C205.608 33.744 205.547 33.6884 205.498 33.6225C205.449 33.5566 205.414 33.4816 205.394 33.402C205.374 33.3224 205.37 33.2396 205.382 33.1584C205.394 33.0772 205.422 32.9991 205.464 32.9287Z" fill="white"/>
<defs>
<filter id="filter0_ddd_132_5" x="0" y="0" width="408" height="110" filterUnits="userSpaceOnUse" color-interpolation-filters="sRGB">
<feFlood flood-opacity="0" result="BackgroundImageFix"/>
<feColorMatrix in="SourceAlpha" type="matrix" values="0 0 0 0 0 0 0 0 0 0 0 0 0 0 0 0 0 0 127 0" result="hardAlpha"/>
<feOffset/>
<feGaussianBlur stdDeviation="0.5"/>
<feColorMatrix type="matrix" values="0 0 0 0 0 0 0 0 0 0 0 0 0 0 0 0 0 0 0.04 0"/>
<feBlend mode="normal" in2="BackgroundImageFix" result="effect1_dropShadow_132_5"/>
<feColorMatrix in="SourceAlpha" type="matrix" values="0 0 0 0 0 0 0 0 0 0 0 0 0 0 0 0 0 0 127 0" result="hardAlpha"/>
<feOffset dy="2"/>
<feGaussianBlur stdDeviation="3"/>
<feColorMatrix type="matrix" values="0 0 0 0 0.165885 0 0 0 0 0.709115 0 0 0 0 0.383177 0 0 0 0.12 0"/>
<feBlend mode="normal" in2="effect1_dropShadow_132_5" result="effect2_dropShadow_132_5"/>
<feColorMatrix in="SourceAlpha" type="matrix" values="0 0 0 0 0 0 0 0 0 0 0 0 0 0 0 0 0 0 127 0" result="hardAlpha"/>
<feOffset dy="16"/>
<feGaussianBlur stdDeviation="12"/>
<feColorMatrix type="matrix" values="0 0 0 0 0.165885 0 0 0 0 0.709115 0 0 0 0 0.383177 0 0 0 0.2 0"/>
<feBlend mode="normal" in2="effect2_dropShadow_132_5" result="effect3_dropShadow_132_5"/>
<feBlend mode="normal" in="SourceGraphic" in2="effect3_dropShadow_132_5" result="shape"/>
</filter>
</defs>
</svg>
